:SAMPLES-PER-SECOND 30
:FULLY-SPECIFIED
:DEGREES
33
root  -4.64349 38.5955 -5.02747 -177.18 -72.3841 171.724
RightUpLeg  -23.2312 -19.976 -4.86553
RightLeg  15.9165 -3.09868 -0.745529
RightFoot  4.30967 -0.291207 2.32537
RightToes  0.00048216 0.542163 -0.142577
Spine  17.5848 -5.29342 -7.27516
Spine1  9.15629 -9.13643 7.96531
HEad  4.02267 10.5996 -10.336
LeftShoulder1  5.32995 -9.52371 -34.8412
LeftArm  10.4015 -15.425 -51.9686
LeftForeArm  29.5782 -23.2447 -3.51003
LeftHand  -0.25398 0.0180481 5.50724
RightShoulder  4.15202 8.23278 29.4039
RightArm  2.45654 -29.1674 47.4027
RightForeArm  27.7732 15.507 5.96321
RightHand  -0.0943383 -6.76221 3.54642
LeftUpLeg  19.8225 10.8439 7.34656
LeftLeg  12.6105 21.1424 0.197004
LeftFoot  -19.3917 -0.827554 -13.3319
LeftToes  1.06246e-005 4.65856e-005 -8.18501e-006
34
root  -5.80912 38.4329 -5.80774 176.578 -71.4684 178.734
RightUpLeg  -24.331 -20.1578 -1.80227
RightLeg  20.1889 -2.13011 -1.13161
RightFoot  4.63701 -0.138121 1.1998
RightToes  0.00048216 0.542163 -0.142577
Spine  17.9211 -5.8821 -4.35429
Spine1  9.39495 -9.36501 8.07993
HEad  3.8657 11.7595 -10.6375
LeftShoulder1  5.44126 -9.70061 -35.1319
LeftArm  8.27431 -14.6097 -50.4384
LeftForeArm  30.0352 -24.8743 -3.72966
LeftHand  -0.25398 0.0180481 5.50724
RightShoulder  4.17804 8.31401 29.3788
RightArm  -0.122478 -28.0736 45.8737
RightForeArm  26.3543 14.9719 5.91639
RightHand  -0.0702059 -6.5718 2.02276
LeftUpLeg  21.379 13.4392 11.5247
LeftLeg  13.6963 17.3126 1.36542
LeftFoot  -18.9315 -1.04087 -17.3696
LeftToes  1.06246e-005 4.65856e-005 -8.18501e-006
35
root  -6.9467 38.3023 -6.6461 172.185 -70.1144 -176.538
RightUpLeg  -24.5517 -19.1791 0.206573
RightLeg  24.3352 -1.78082 -1.1008
RightFoot  2.73413 0.0732621 -0.47051
RightToes  0.00048216 0.542163 -0.142577
Spine  18.6109 -6.18351 -2.21943
Spine1  9.87748 -9.41607 8.36601
HEad  3.95931 12.921 -10.9537
LeftShoulder1  5.57603 -9.86855 -35.6127
LeftArm  5.97561 -13.4469 -48.2261
LeftForeArm  30.1211 -26.0146 -3.97937
LeftHand  -0.25398 0.0180481 5.50724
RightShoulder  4.33983 8.5703 29.9791
RightArm  -4.13072 -25.462 43.7712
RightForeArm  26.1944 13.2805 5.93983
RightHand  -0.0494424 -6.12504 0.584889
LeftUpLeg  21.9249 16.334 15.0463
LeftLeg  17.3674 14.1281 4.28532
LeftFoot  -16.6968 -0.916096 -21.7511
LeftToes  1.06246e-005 4.65856e-005 -8.18501e-006
36
root  -8.01369 38.2528 -7.51648 170.205 -68.8098 -174.328
RightUpLeg  -24.2322 -18.6086 1.65576
RightLeg  27.6561 -1.47025 -1.07022
RightFoot  -0.166773 0.235312 -2.41224
RightToes  0.00048216 0.542163 -0.142577
Spine  19.3404 -6.21265 -0.982929
Spine1  10.295 -9.28602 8.69757
HEad  4.47294 13.7762 -11.0872
LeftShoulder1  5.74119 -10.0521 -36.2512
LeftArm  4.06555 -12.0416 -45.6458
LeftForeArm  29.2744 -26.2635 -4.07718
LeftHand  -0.25398 0.0180481 5.50724
RightShoulder  4.49993 8.79315 30.6414
RightArm  -8.86518 -21.9516 42.1249
RightForeArm  25.8823 11.2 5.60896
RightHand  -0.0389941 -5.28238 -1.35456
LeftUpLeg  18.9149 14.8526 15.3436
LeftLeg  26.1469 17.5271 9.68961
LeftFoot  -11.0736 0.0563082 -20.0103
LeftToes  1.06246e-005 4.65856e-005 -8.18501e-006
37
root  -9.00587 38.2396 -8.33845 168.988 -67.7295 -172.688
RightUpLeg  -23.6896 -17.968 2.85372
RightLeg  30.0571 -1.54897 -1.21433
RightFoot  -2.94528 0.228593 -3.34849
RightToes  0.00048216 0.542163 -0.142577
Spine  19.8478 -6.19433 0.656634
Spine1  10.4464 -8.75485 8.32016
HEad  5.24752 13.8633 -10.7802
LeftShoulder1  5.91046 -10.2866 -36.746
LeftArm  2.46589 -10.5519 -43.2616
LeftForeArm  27.9012 -25.6588 -4.0198
LeftHand  -0.25398 0.0180481 5.50724
RightShoulder  4.55131 8.89061 30.7691
RightArm  -12.6871 -18.5387 41.6084
RightForeArm  23.0784 10.3507 5.01378
RightHand  -0.0570594 -4.5572 -3.8094
LeftUpLeg  12.8045 12.6183 14.7401
LeftLeg  38.2678 18.9416 15.5882
LeftFoot  -3.20698 0.802851 -11.1861
LeftToes  1.06246e-005 4.65856e-005 -8.18501e-006
38
root  -9.94847 38.2181 -9.05356 167.391 -66.9223 -170.73
RightUpLeg  -22.8068 -16.9426 3.85037
RightLeg  31.9058 -1.92968 -1.54988
RightFoot  -5.44746 0.124066 -3.1083
RightToes  0.00048216 0.542163 -0.142577
Spine  20.259 -6.2796 3.26195
Spine1  10.6567 -7.83849 7.05714
HEad  5.86613 13.1617 -10.1797
LeftShoulder1  6.0691 -10.5728 -36.9951
LeftArm  0.885188 -9.17582 -41.3062
LeftForeArm  26.6266 -24.7795 -3.89936
LeftHand  -0.25398 0.0180481 5.50724
RightShoulder  4.53808 8.97669 30.4051
RightArm  -14.3024 -15.4219 41.6276
RightForeArm  17.2477 11.3076 4.90749
RightHand  -0.113377 -3.85321 -6.68755
LeftUpLeg  5.8237 11.4995 14.4025
LeftLeg  48.697 13.7074 16.3812
LeftFoot  1.8022 0.458181 -3.78071
LeftToes  1.06246e-005 4.65856e-005 -8.18501e-006
39
root  -10.9179 38.3017 -9.72889 166.442 -66.4711 -169.875
RightUpLeg  -20.9298 -16.0025 4.10715
RightLeg  32.8355 -2.34649 -1.89056
RightFoot  -7.70357 0.0344769 -2.74563
RightToes  0.00048216 0.542163 -0.142577
Spine  20.5453 -6.21999 5.48782
Spine1  11.201 -6.82317 5.54363
HEad  6.16652 12.1303 -9.78338
LeftShoulder1  6.24839 -10.8693 -37.3417
LeftArm  -0.638266 -7.98662 -39.5544
LeftForeArm  25.663 -24.0496 -3.79766
LeftHand  -0.25398 0.0180481 5.50724
RightShoulder  4.53979 9.10899 30.031
RightArm  -12.9402 -12.0964 41.0956
RightForeArm  10.0916 13.4749 5.29124
RightHand  -0.272052 -2.35821 -9.82939
LeftUpLeg  -0.689893 10.6908 13.3071
LeftLeg  56.1764 7.3912 12.2137
LeftFoot  1.83661 0.286377 -2.59359
LeftToes  1.06246e-005 4.65856e-005 -8.18501e-006
40
root  -11.9345 38.5148 -10.4161 166.737 -66.3335 -170.469
RightUpLeg  -18.2881 -15.6388 3.65885
RightLeg  32.6685 -2.54868 -2.02219
RightFoot  -9.63123 -0.0260485 -2.6099
RightToes  0.00048216 0.542163 -0.142577
Spine  20.495 -5.85328 6.70799
Spine1  11.9186 -5.8756 4.49719
HEad  6.43214 11.145 -9.8871
LeftShoulder1  6.4592 -11.1131 -38.0335
LeftArm  -1.8512 -6.78315 -37.9007
LeftForeArm  24.7978 -23.4407 -3.73875
LeftHand  -0.25398 0.0180481 5.50724
RightShoulder  4.55972 9.18448 29.9729
RightArm  -9.29995 -8.44681 39.5781
RightForeArm  4.30345 16.39 5.43935
RightHand  -0.571116 -0.139385 -12.6402
LeftUpLeg  -6.7894 10.41 11.3402
LeftLeg  60.8268 4.23886 8.84878
LeftFoot  -0.00143073 0.425618 -4.28449
LeftToes  1.06246e-005 4.65856e-005 -8.18501e-006
